<svg viewBox="0 0 512 512" xml:space="preserve" xmlns="http://www.w3.org/2000/svg" enable-background="new 0 0 512 512"><path d="M161.2 471.9c0 13.8 11.1 24.9 24.9 24.9h139.8c13.8 0 24.9-11.2 24.9-24.9v-16.3H161.2v16.3zM256 355.3l-77.3-95.2h-17.5v181.5h189.6V260.1h-17.5z" fill="#e8e8e8" class="fill-3b4652"></path><path d="m164.3 220.1 32.4 40 59.2 73 59.2-73 32.4-40c.3-.3.5-.6.8-.9 19-21.6 30.5-50 30.5-81.1 0-67.9-55-123-122.9-123S133 70.2 133 138.1c0 31.1 11.5 59.4 30.5 81.1.3.3.6.6.8.9zM256 86c28.8 0 52.1 23.3 52.1 52.1s-23.3 52.1-52.1 52.1-52.1-23.3-52.1-52.1c0-28.7 23.3-52.1 52.1-52.1z" fill="#ffffff" class="fill-2b79c2"></path></svg>